{
  "accessors": [
    {
      "bufferView": 1,
      "componentType": 5126,
      "count": 65533,
      "max": [
        6.657405376434326,
        6.680424690246582,
        17.00612449645996
      ],
      "min": [
        -7.745408058166504,
        -7.2166314125061035,
        0.3559015095233917
      ],
      "type": "VEC3"
    },
    {
      "bufferView": 1,
      "byteOffset": 786396,
      "componentType": 5126,
      "count": 65533,
      "max": [
        0.9999910593032837,
        0.9999479055404663,
        0.9998484253883362
      ],
      "min": [
        -0.9999605417251587,
        -0.9999464154243469,
        -0.9998180866241455
      ],
      "type": "VEC3"
    },
    {
      "bufferView": 0,
      "componentType": 5125,
      "count": 99273,
      "type": "SCALAR"
    },
    {
      "bufferView": 1,
      "byteOffset": 1572792,
      "componentType": 5126,
      "count": 27915,
      "max": [
        6.657405376434326,
        6.675282955169678,
        17.00612449645996
      ],
      "min": [
        -7.544867992401123,
        -7.2166314125061035,
        0.3559015095233917
      ],
      "type": "VEC3"
    },
    {
      "bufferView": 1,
      "byteOffset": 1907772,
      "componentType": 5126,
      "count": 27915,
      "max": [
        0.9999945759773254,
        0.9999556541442871,
        0.9992115497589111
      ],
      "min": [
        -0.9997905492782593,
        -0.9999680519104004,
        -0.9997414350509644
      ],
      "type": "VEC3"
    },
    {
      "bufferView": 0,
      "byteOffset": 397092,
      "componentType": 5125,
      "count": 41871,
      "type": "SCALAR"
    },
    {
      "bufferView": 1,
      "byteOffset": 2242752,
      "componentType": 5126,
      "count": 10221,
      "max": [
        5.863685131072998,
        5.761539459228516,
        16.009212493896484
      ],
      "min": [
        -6.988483428955078,
        -6.3641886711120605,
        9.999996109399945e-05
      ],
      "type": "VEC3"
    },
    {
      "bufferView": 1,
      "byteOffset": 2365404,
      "componentType": 5126,
      "count": 10221,
      "max": [
        0.999950110912323,
        0.999992847442627,
        0.99970942735672
      ],
      "min": [
        -0.9995543956756592,
        -0.9999583959579468,
        -0.9998142123222351
      ],
      "type": "VEC3"
    },
    {
      "bufferView": 0,
      "byteOffset": 564576,
      "componentType": 5125,
      "count": 51180,
      "type": "SCALAR"
    }
  ],
  "asset": {
    "extras": {
      "author": "YouniqueĪdeaStudio (https://sketchfab.com/sinnervoncrawsz)",
      "license": "CC-BY-4.0 (http://creativecommons.org/licenses/by/4.0/)",
      "source": "https://sketchfab.com/3d-models/pine-fin-tree-52aefcb65da84d768ed77b811e3a42c8",
      "title": "Pine , Fin Tree"
    },
    "generator": "Sketchfab-14.23.0",
    "version": "2.0"
  },
  "bufferViews": [
    {
      "buffer": 0,
      "byteLength": 769296,
      "name": "floatBufferViews",
      "target": 34963
    },
    {
      "buffer": 0,
      "byteLength": 2488056,
      "byteOffset": 769296,
      "byteStride": 12,
      "name": "floatBufferViews",
      "target": 34962
    }
  ],
  "buffers": [
    {
      "byteLength": 3257352,
      "uri": "scene.bin"
    }
  ],
  "materials": [
    {
      "doubleSided": true,
      "name": "Material.005",
      "pbrMetallicRoughness": {
        "baseColorFactor": [
          0.002157335384252327,
          0.012881646644318132,
          0.0009676168103326733,
          1.0
        ],
        "metallicFactor": 0.0,
        "roughnessFactor": 0.9858855901544241
      }
    },
    {
      "doubleSided": true,
      "name": "Material.004",
      "pbrMetallicRoughness": {
        "baseColorFactor": [
          0.06809798704210185,
          0.04429135923545397,
          0.033403968900926076,
          1.0
        ],
        "metallicFactor": 0.0
      }
    }
  ],
  "meshes": [
    {
      "name": "pine_Material.005_0",
      "primitives": [
        {
          "attributes": {
            "NORMAL": 1,
            "POSITION": 0
          },
          "indices": 2,
          "material": 0,
          "mode": 4
        }
      ]
    },
    {
      "name": "pine_Material.005_0",
      "primitives": [
        {
          "attributes": {
            "NORMAL": 4,
            "POSITION": 3
          },
          "indices": 5,
          "material": 0,
          "mode": 4
        }
      ]
    },
    {
      "name": "trunchi_Material.004_0",
      "primitives": [
        {
          "attributes": {
            "NORMAL": 7,
            "POSITION": 6
          },
          "indices": 8,
          "material": 1,
          "mode": 4
        }
      ]
    }
  ],
  "nodes": [
    {
      "children": [
        1
      ],
      "matrix": [
        1.0,
        0.0,
        0.0,
        0.0,
        0.0,
        2.220446049250313e-16,
        -1.0,
        0.0,
        0.0,
        1.0,
        2.220446049250313e-16,
        0.0,
        0.0,
        0.0,
        0.0,
        1.0
      ],
      "name": "Sketchfab_model"
    },
    {
      "children": [
        2
      ],
      "matrix": [
        0.009999999776482582,
        0.0,
        0.0,
        0.0,
        0.0,
        0.0,
        0.009999999776482582,
        0.0,
        0.0,
        -0.009999999776482582,
        0.0,
        0.0,
        0.0,
        0.0,
        0.0,
        1.0
      ],
      "name": "837df9d5e5b54efc9881e39a3f8c679b.fbx"
    },
    {
      "children": [
        3,
        6
      ],
      "name": "RootNode"
    },
    {
      "children": [
        4,
        5
      ],
      "matrix": [
        100.0,
        0.0,
        0.0,
        0.0,
        0.0,
        -1.629206793918314e-05,
        -99.99999999999868,
        0.0,
        0.0,
        99.99999999999868,
        -1.629206793918314e-05,
        0.0,
        0.0,
        0.0,
        0.0,
        1.0
      ],
      "name": "pine"
    },
    {
      "mesh": 0,
      "name": "pine_Material.005_0"
    },
    {
      "mesh": 1,
      "name": "pine_Material.005_0"
    },
    {
      "children": [
        7
      ],
      "matrix": [
        100.0,
        0.0,
        0.0,
        0.0,
        0.0,
        -1.629206793918314e-05,
        -99.99999999999868,
        0.0,
        0.0,
        99.99999999999868,
        -1.629206793918314e-05,
        0.0,
        0.0,
        0.0,
        0.0,
        1.0
      ],
      "name": "trunchi"
    },
    {
      "mesh": 2,
      "name": "trunchi_Material.004_0"
    }
  ],
  "scene": 0,
  "scenes": [
    {
      "name": "Sketchfab_Scene",
      "nodes": [
        0
      ]
    }
  ]
}
