{
  "accessors": [
    {
      "bufferView": 2,
      "componentType": 5126,
      "count": 29673,
      "max": [
        17.986663818359375,
        31.223608016967773,
        56.136322021484375
      ],
      "min": [
        -17.986663818359375,
        -31.223608016967773,
        1.0917949676513672
      ],
      "type": "VEC3"
    },
    {
      "bufferView": 2,
      "byteOffset": 356076,
      "componentType": 5126,
      "count": 29673,
      "max": [
        0.9999969601631165,
        0.9999371767044067,
        0.9999874234199524
      ],
      "min": [
        -0.9999833703041077,
        -0.9999586939811707,
        -0.9992490410804749
      ],
      "type": "VEC3"
    },
    {
      "bufferView": 3,
      "componentType": 5126,
      "count": 29673,
      "max": [
        0.9999971985816956,
        0.9998680353164673,
        0.9999918341636658,
        1.0
      ],
      "min": [
        -1.0,
        -0.9999196529388428,
        -0.9999902248382568,
        -1.0
      ],
      "type": "VEC4"
    },
    {
      "bufferView": 1,
      "componentType": 5126,
      "count": 29673,
      "max": [
        0.9945101737976074,
        0.9991629719734192
      ],
      "min": [
        0.004705999977886677,
        0.004064000211656094
      ],
      "type": "VEC2"
    },
    {
      "bufferView": 1,
      "byteOffset": 237384,
      "componentType": 5126,
      "count": 29673,
      "max": [
        0.9945101737976074,
        0.9991629719734192
      ],
      "min": [
        0.004705999977886677,
        0.004064000211656094
      ],
      "type": "VEC2"
    },
    {
      "bufferView": 0,
      "componentType": 5125,
      "count": 129687,
      "type": "SCALAR"
    },
    {
      "bufferView": 2,
      "byteOffset": 712152,
      "componentType": 5126,
      "count": 880,
      "max": [
        16.437606811523438,
        29.927732467651367,
        1.0917949676513672
      ],
      "min": [
        -15.763259887695313,
        -29.428037643432617,
        1.0917949676513672
      ],
      "type": "VEC3"
    },
    {
      "bufferView": 2,
      "byteOffset": 722712,
      "componentType": 5126,
      "count": 880,
      "max": [
        0.0,
        0.0,
        -1.0
      ],
      "min": [
        0.0,
        0.0,
        -1.0
      ],
      "type": "VEC3"
    },
    {
      "bufferView": 1,
      "byteOffset": 474768,
      "componentType": 5126,
      "count": 880,
      "max": [
        0.6569851040840149,
        0.7893702983856201
      ],
      "min": [
        0.34301483631134033,
        0.21062970161437988
      ],
      "type": "VEC2"
    },
    {
      "bufferView": 0,
      "byteOffset": 518748,
      "componentType": 5125,
      "count": 2625,
      "type": "SCALAR"
    }
  ],
  "asset": {
    "extras": {
      "author": "Francesco Coldesina (https://sketchfab.com/topfrank2013)",
      "license": "CC-BY-4.0 (http://creativecommons.org/licenses/by/4.0/)",
      "source": "https://sketchfab.com/3d-models/nandi-2760803f9fb743d99a29b1b86c03e345",
      "title": "Nandi"
    },
    "generator": "Sketchfab-12.65.0",
    "version": "2.0"
  },
  "bufferViews": [
    {
      "buffer": 0,
      "byteLength": 529248,
      "name": "floatBufferViews",
      "target": 34963
    },
    {
      "buffer": 0,
      "byteLength": 481808,
      "byteOffset": 529248,
      "byteStride": 8,
      "name": "floatBufferViews",
      "target": 34962
    },
    {
      "buffer": 0,
      "byteLength": 733272,
      "byteOffset": 1011056,
      "byteStride": 12,
      "name": "floatBufferViews",
      "target": 34962
    },
    {
      "buffer": 0,
      "byteLength": 474768,
      "byteOffset": 1744328,
      "byteStride": 16,
      "name": "floatBufferViews",
      "target": 34962
    }
  ],
  "buffers": [
    {
      "byteLength": 2219096,
      "uri": "scene.bin"
    }
  ],
  "images": [
    {
      "uri": "textures/Nandi_NMappato_baseColor.jpeg"
    },
    {
      "uri": "textures/Nandi_NMappato_normal.png"
    },
    {
      "uri": "textures/Logo_baseColor.jpeg"
    }
  ],
  "materials": [
    {
      "doubleSided": true,
      "name": "Nandi_NMappato",
      "normalTexture": {
        "index": 1
      },
      "pbrMetallicRoughness": {
        "baseColorTexture": {
          "index": 0
        },
        "metallicFactor": 0.0,
        "roughnessFactor": 0.6
      }
    },
    {
      "doubleSided": true,
      "name": "Logo",
      "pbrMetallicRoughness": {
        "baseColorTexture": {
          "index": 2
        },
        "metallicFactor": 0.12,
        "roughnessFactor": 0.6
      }
    }
  ],
  "meshes": [
    {
      "name": "LR_Nandi NMappato_0",
      "primitives": [
        {
          "attributes": {
            "NORMAL": 1,
            "POSITION": 0,
            "TANGENT": 2,
            "TEXCOORD_0": 3,
            "TEXCOORD_1": 4
          },
          "indices": 5,
          "material": 0,
          "mode": 4
        }
      ]
    },
    {
      "name": "LR_Logo_0",
      "primitives": [
        {
          "attributes": {
            "NORMAL": 7,
            "POSITION": 6,
            "TEXCOORD_0": 8
          },
          "indices": 9,
          "material": 1,
          "mode": 4
        }
      ]
    }
  ],
  "nodes": [
    {
      "children": [
        1
      ],
      "matrix": [
        1.0,
        0.0,
        0.0,
        0.0,
        0.0,
        2.220446049250313e-16,
        -1.0,
        0.0,
        0.0,
        1.0,
        2.220446049250313e-16,
        0.0,
        0.0,
        0.0,
        0.0,
        1.0
      ],
      "name": "Sketchfab_model"
    },
    {
      "children": [
        2
      ],
      "matrix": [
        1.0,
        0.0,
        0.0,
        0.0,
        0.0,
        0.0,
        1.0,
        0.0,
        0.0,
        -1.0,
        0.0,
        0.0,
        0.0,
        0.0,
        0.0,
        1.0
      ],
      "name": "Nandi.fbx"
    },
    {
      "children": [
        3
      ],
      "name": "RootNode"
    },
    {
      "children": [
        4,
        5
      ],
      "matrix": [
        1.0,
        0.0,
        0.0,
        0.0,
        0.0,
        2.220446049250313e-16,
        -1.0,
        0.0,
        0.0,
        1.0,
        2.220446049250313e-16,
        0.0,
        0.0,
        0.0,
        1.2072445088051609e-06,
        1.0
      ],
      "name": "LR"
    },
    {
      "mesh": 0,
      "name": "LR_Nandi NMappato_0"
    },
    {
      "mesh": 1,
      "name": "LR_Logo_0"
    }
  ],
  "samplers": [
    {
      "magFilter": 9729,
      "minFilter": 9987,
      "wrapS": 10497,
      "wrapT": 10497
    },
    {
      "magFilter": 9729,
      "minFilter": 9987,
      "wrapS": 33071,
      "wrapT": 33071
    }
  ],
  "scene": 0,
  "scenes": [
    {
      "name": "Sketchfab_Scene",
      "nodes": [
        0
      ]
    }
  ],
  "textures": [
    {
      "sampler": 0,
      "source": 0
    },
    {
      "sampler": 0,
      "source": 1
    },
    {
      "sampler": 1,
      "source": 2
    }
  ]
}
