{
  "accessors": [
    {
      "bufferView": 2,
      "componentType": 5126,
      "count": 2877,
      "max": [
        13.04729175567627,
        25.44744110107422,
        49.73302459716797
      ],
      "min": [
        -36.665279388427734,
        -19.189802169799805,
        -0.39342498779296875
      ],
      "type": "VEC3"
    },
    {
      "bufferView": 2,
      "byteOffset": 34524,
      "componentType": 5126,
      "count": 2877,
      "max": [
        0.9987002015113831,
        0.9992029070854187,
        0.9998412132263184
      ],
      "min": [
        -0.9993622899055481,
        -0.9995504021644592,
        -0.9994016289710999
      ],
      "type": "VEC3"
    },
    {
      "bufferView": 1,
      "componentType": 5126,
      "count": 2877,
      "max": [
        1.9943077564239502,
        2.6348869800567627
      ],
      "min": [
        0.0893358588218689,
        -1.7222862243652344
      ],
      "type": "VEC2"
    },
    {
      "bufferView": 0,
      "componentType": 5125,
      "count": 6966,
      "type": "SCALAR"
    },
    {
      "bufferView": 2,
      "byteOffset": 69048,
      "componentType": 5126,
      "count": 3498,
      "max": [
        15.146073341369629,
        27.139801025390625,
        52.18544006347656
      ],
      "min": [
        -39.25718307495117,
        -21.001312255859375,
        13.553909301757813
      ],
      "type": "VEC3"
    },
    {
      "bufferView": 2,
      "byteOffset": 111024,
      "componentType": 5126,
      "count": 3498,
      "max": [
        0.9996815323829651,
        0.9985038042068481,
        0.9997155070304871
      ],
      "min": [
        -0.9990069270133972,
        -0.9998512268066406,
        -0.9971838593482971
      ],
      "type": "VEC3"
    },
    {
      "bufferView": 1,
      "byteOffset": 23016,
      "componentType": 5126,
      "count": 3498,
      "max": [
        2.9997363090515137,
        0.9996827840805054
      ],
      "min": [
        2.0003247261047363,
        0.0002257823944091797
      ],
      "type": "VEC2"
    },
    {
      "bufferView": 0,
      "byteOffset": 27864,
      "componentType": 5125,
      "count": 7632,
      "type": "SCALAR"
    },
    {
      "bufferView": 2,
      "byteOffset": 153000,
      "componentType": 5126,
      "count": 438,
      "max": [
        9.557445526123047,
        20.73613929748535,
        43.19675064086914
      ],
      "min": [
        -30.670631408691406,
        -17.808609008789063,
        7.452251434326172
      ],
      "type": "VEC3"
    },
    {
      "bufferView": 2,
      "byteOffset": 158256,
      "componentType": 5126,
      "count": 438,
      "max": [
        0.9373681545257568,
        0.9906290173530579,
        0.9981158375740051
      ],
      "min": [
        -0.9904376268386841,
        -0.9915449023246765,
        -0.608052134513855
      ],
      "type": "VEC3"
    },
    {
      "bufferView": 1,
      "byteOffset": 51000,
      "componentType": 5126,
      "count": 438,
      "max": [
        1.0,
        1.0
      ],
      "min": [
        0.0,
        0.0
      ],
      "type": "VEC2"
    },
    {
      "bufferView": 0,
      "byteOffset": 58392,
      "componentType": 5125,
      "count": 1158,
      "type": "SCALAR"
    }
  ],
  "asset": {
    "extras": {
      "author": "Petru Grati (https://sketchfab.com/einmeister5)",
      "license": "CC-BY-4.0 (http://creativecommons.org/licenses/by/4.0/)",
      "source": "https://sketchfab.com/3d-models/lilac-af5430510ad2485b953160c02b6cb521",
      "title": "Lilac"
    },
    "generator": "Sketchfab-14.70.0",
    "version": "2.0"
  },
  "bufferViews": [
    {
      "buffer": 0,
      "byteLength": 63024,
      "name": "floatBufferViews",
      "target": 34963
    },
    {
      "buffer": 0,
      "byteLength": 54504,
      "byteOffset": 63024,
      "byteStride": 8,
      "name": "floatBufferViews",
      "target": 34962
    },
    {
      "buffer": 0,
      "byteLength": 163512,
      "byteOffset": 117528,
      "byteStride": 12,
      "name": "floatBufferViews",
      "target": 34962
    }
  ],
  "buffers": [
    {
      "byteLength": 281040,
      "uri": "scene.bin"
    }
  ],
  "images": [
    {
      "uri": "textures/m_Lilac_baseColor.jpeg"
    },
    {
      "uri": "textures/m_LilacFlower_baseColor.png"
    },
    {
      "uri": "textures/m_LilacLeaf_baseColor.png"
    }
  ],
  "materials": [
    {
      "doubleSided": true,
      "name": "m_Lilac",
      "pbrMetallicRoughness": {
        "baseColorTexture": {
          "index": 0
        },
        "metallicFactor": 0.0,
        "roughnessFactor": 0.8211145618000169
      }
    },
    {
      "alphaMode": "BLEND",
      "doubleSided": true,
      "name": "m_LilacFlower",
      "pbrMetallicRoughness": {
        "baseColorTexture": {
          "index": 1
        },
        "metallicFactor": 0.0,
        "roughnessFactor": 0.8211145618000169
      }
    },
    {
      "alphaCutoff": 0.8579073764796235,
      "alphaMode": "MASK",
      "doubleSided": true,
      "name": "m_LilacLeaf",
      "pbrMetallicRoughness": {
        "baseColorTexture": {
          "index": 2
        },
        "metallicFactor": 0.0,
        "roughnessFactor": 0.8211145618000169
      }
    }
  ],
  "meshes": [
    {
      "name": "Lilac2_m_Lilac_0",
      "primitives": [
        {
          "attributes": {
            "NORMAL": 1,
            "POSITION": 0,
            "TEXCOORD_0": 2
          },
          "indices": 3,
          "material": 0,
          "mode": 4
        }
      ]
    },
    {
      "name": "Lilac2_m_LilacFlower_0",
      "primitives": [
        {
          "attributes": {
            "NORMAL": 5,
            "POSITION": 4,
            "TEXCOORD_0": 6
          },
          "indices": 7,
          "material": 1,
          "mode": 4
        }
      ]
    },
    {
      "name": "Lilac2_m_LilacLeaf_0",
      "primitives": [
        {
          "attributes": {
            "NORMAL": 9,
            "POSITION": 8,
            "TEXCOORD_0": 10
          },
          "indices": 11,
          "material": 2,
          "mode": 4
        }
      ]
    }
  ],
  "nodes": [
    {
      "children": [
        1
      ],
      "matrix": [
        1.0,
        0.0,
        0.0,
        0.0,
        0.0,
        2.220446049250313e-16,
        -1.0,
        0.0,
        0.0,
        1.0,
        2.220446049250313e-16,
        0.0,
        0.0,
        0.0,
        0.0,
        1.0
      ],
      "name": "Sketchfab_model"
    },
    {
      "children": [
        2
      ],
      "matrix": [
        0.009999999776482582,
        0.0,
        0.0,
        0.0,
        0.0,
        0.0,
        0.009999999776482582,
        0.0,
        0.0,
        -0.009999999776482582,
        0.0,
        0.0,
        0.0,
        0.0,
        0.0,
        1.0
      ],
      "name": "39127105cfa34ad597bd53123e151f1e.fbx"
    },
    {
      "children": [
        3
      ],
      "name": "RootNode"
    },
    {
      "children": [
        4,
        5,
        6
      ],
      "matrix": [
        0.05367889346364142,
        -0.38693750698159946,
        2.764744333666156,
        0.0,
        2.7907366268501375,
        -0.06484366330439362,
        -0.0632586881074863,
        0.0,
        0.07297214868719125,
        2.7645050109605567,
        0.38548722202127367,
        0.0,
        0.0,
        0.0,
        0.0,
        1.0
      ],
      "name": "Lilac2"
    },
    {
      "mesh": 0,
      "name": "Lilac2_m_Lilac_0"
    },
    {
      "mesh": 1,
      "name": "Lilac2_m_LilacFlower_0"
    },
    {
      "mesh": 2,
      "name": "Lilac2_m_LilacLeaf_0"
    }
  ],
  "samplers": [
    {
      "magFilter": 9729,
      "minFilter": 9987,
      "wrapS": 10497,
      "wrapT": 10497
    }
  ],
  "scene": 0,
  "scenes": [
    {
      "name": "Sketchfab_Scene",
      "nodes": [
        0
      ]
    }
  ],
  "textures": [
    {
      "sampler": 0,
      "source": 0
    },
    {
      "sampler": 0,
      "source": 1
    },
    {
      "sampler": 0,
      "source": 2
    }
  ]
}
